<svg width="2000" height="383" viewBox="0 0 2000 383" fill="none" xmlns="http://www.w3.org/2000/svg">
<path d="M183.171 195.428C181.89 195.186 180.942 195.079 180.093 194.832C178.056 194.241 176.038 193.618 174.06 192.953C168.734 191.163 163.485 189.273 158.101 187.559C150.988 185.298 145.246 181.78 139.496 178.363C135.179 175.799 131.705 172.56 128.076 169.505C123.41 165.575 119.94 161.105 117.31 156.378C115.517 153.153 114.009 149.775 113.246 146.346C112.195 141.625 111.726 136.802 111.488 131.998C111.364 129.495 111.986 126.902 112.794 124.41C114.004 120.666 116.02 117.005 117.048 113.249C118.318 108.616 121.908 104.69 125.142 100.653C128.04 97.0354 131.109 93.4569 134.5 90.0326C137.648 86.853 141.075 83.7587 144.809 80.8745C149.936 76.9143 155.16 72.9614 160.903 69.4255C168.512 64.7432 176.543 60.3634 184.618 56.0567C190.17 53.0954 196.008 50.3617 201.905 47.7337C206.577 45.6499 211.497 43.8145 216.391 41.988C222.294 39.7831 228.146 37.4669 234.275 35.6275C241.699 33.3969 249.338 31.5033 256.973 29.6645C262.745 28.2734 268.587 26.8427 274.534 26.0535C285.807 24.5568 297.16 23.3889 308.51 22.3238C313.958 21.8139 319.494 21.6458 324.959 21.7021C331.924 21.7721 338.86 22.1723 345.796 22.5243C350.286 22.7522 354.764 23.0698 359.206 23.4902C363.755 23.9202 368.368 24.2832 372.754 25.0941C382.417 26.877 391.961 28.9106 401.54 30.8632C403.866 31.3377 406.231 31.7802 408.432 32.4409C415.069 34.4382 421.663 36.5035 428.224 38.6092C431.644 39.7087 435.033 40.8749 438.298 42.1574C442.635 43.8562 446.844 45.6964 451.109 47.4753C451.02 47.6363 450.932 47.794 450.842 47.955C450.197 47.8904 449.553 47.8335 448.911 47.7547C441.283 46.8244 433.722 45.602 426.01 45.0338C416.444 44.3308 406.772 43.9221 397.106 43.8513C389.286 43.7951 381.407 44.3579 373.558 44.7795C368.488 45.0532 363.37 45.3084 358.386 46.0343C348.073 47.541 337.784 49.2235 327.572 51.0972C321.087 52.2861 314.629 53.7145 308.382 55.4493C300.754 57.5636 293.308 60.0261 285.886 62.494C280.404 64.317 274.956 66.2252 269.736 68.3884C263.581 70.9396 257.527 73.6468 251.725 76.5663C243.636 80.6368 235.713 84.8708 227.936 89.2192C223.211 91.8607 218.677 94.7082 214.457 97.7231C209.257 101.441 204.332 105.347 199.564 109.318C195.838 112.419 192.338 115.663 189.09 118.994C186.739 121.407 184.745 124.007 182.978 126.634C180.129 130.876 177.243 135.136 175.048 139.523C173.279 143.048 172.184 146.751 171.384 150.414C170.476 154.57 169.898 158.779 169.801 162.952C169.721 166.293 170.344 169.645 171.087 172.935C171.771 175.983 172.659 179.051 174.133 181.934C175.887 185.353 178.338 188.59 180.534 191.89C181.264 192.988 182.121 194.04 183.166 195.438L183.171 195.428Z" fill="#161616"/>
<path d="M267.938 138.729C269.219 138.971 270.168 139.078 271.017 139.326C273.053 139.916 275.071 140.539 277.049 141.205C282.375 142.995 287.624 144.885 293.009 146.599C300.121 148.859 305.863 152.378 311.614 155.795C315.93 158.359 319.404 161.597 323.034 164.653C327.7 168.583 331.17 173.053 333.799 177.78C335.592 181.005 337.101 184.383 337.863 187.811C338.914 192.533 339.383 197.356 339.621 202.16C339.746 204.663 339.123 207.256 338.315 209.748C337.106 213.492 335.09 217.153 334.061 220.908C332.791 225.541 329.201 229.468 325.968 233.505C323.07 237.122 320 240.701 316.609 244.125C313.461 247.305 310.034 250.399 306.3 253.283C301.173 257.243 295.949 261.196 290.206 264.732C282.597 269.414 274.567 273.794 266.491 278.101C260.939 281.062 255.101 283.796 249.204 286.424C244.532 288.508 239.612 290.343 234.719 292.17C228.815 294.374 222.963 296.691 216.834 298.53C209.41 300.761 201.771 302.654 194.136 304.493C188.364 305.884 182.522 307.315 176.576 308.104C165.302 309.601 153.949 310.769 142.599 311.834C137.151 312.344 131.615 312.512 126.15 312.455C119.186 312.385 112.25 311.985 105.314 311.633C100.824 311.405 96.3458 311.088 91.9038 310.667C87.3545 310.237 82.7411 309.874 78.3556 309.064C68.6928 307.281 59.1482 305.247 49.5691 303.294C47.2432 302.82 44.878 302.377 42.6772 301.717C36.0401 299.719 29.4462 297.654 22.8857 295.548C19.465 294.449 16.0762 293.283 12.8111 292C8.47465 290.301 4.26513 288.461 0 286.682C0.0896033 286.521 0.177378 286.364 0.266982 286.203C0.912073 286.267 1.55604 286.324 2.19858 286.403C9.82626 287.333 17.3879 288.556 25.0991 289.124C34.6658 289.827 44.3373 290.236 54.0037 290.306C61.8229 290.363 69.7024 289.8 77.5517 289.378C82.6212 289.105 87.7395 288.849 92.723 288.123C103.037 286.617 113.325 284.934 123.538 283.061C130.023 281.872 136.48 280.443 142.728 278.708C150.355 276.594 157.801 274.132 165.224 271.664C170.705 269.841 176.153 267.932 181.374 265.769C187.529 263.218 193.583 260.511 199.385 257.591C207.474 253.521 215.396 249.287 223.173 244.939C227.898 242.297 232.432 239.449 236.652 236.435C241.853 232.717 246.777 228.811 251.545 224.84C255.271 221.739 258.771 218.495 262.019 215.164C264.37 212.751 266.364 210.15 268.132 207.524C270.981 203.281 273.866 199.021 276.061 194.635C277.83 191.11 278.926 187.407 279.725 183.744C280.633 179.588 281.212 175.379 281.309 171.206C281.388 167.865 280.765 164.513 280.023 161.222C279.338 158.174 278.45 155.106 276.976 152.224C275.222 148.805 272.771 145.568 270.576 142.267C269.846 141.17 268.989 140.118 267.944 138.719L267.938 138.729Z" fill="#161616"/>
<path d="M565.18 382.542V99.4156H616.967L618.479 144.398L608.651 140.996C610.415 132.932 614.699 125.498 621.503 118.694C628.559 111.89 637.253 106.346 647.585 102.062C657.917 97.7776 668.754 95.6356 680.094 95.6356C697.482 95.6356 712.854 100.172 726.211 109.244C739.819 118.064 750.529 130.286 758.341 145.91C766.405 161.283 770.437 179.049 770.437 199.209C770.437 219.118 766.531 236.884 758.719 252.508C750.907 268.132 740.197 280.481 726.589 289.553C712.98 298.373 697.482 302.783 680.094 302.783C668.502 302.783 657.413 300.641 646.829 296.357C636.497 291.821 627.677 285.899 620.369 278.591C613.061 271.282 608.525 263.47 606.761 255.154L619.235 249.862V382.542H565.18ZM667.998 256.666C677.826 256.666 686.52 254.272 694.08 249.484C701.64 244.696 707.562 238.018 711.846 229.45C716.13 220.63 718.272 210.549 718.272 199.209C718.272 187.869 716.13 177.915 711.846 169.347C707.562 160.779 701.64 154.101 694.08 149.312C686.772 144.524 678.078 142.13 667.998 142.13C657.917 142.13 649.097 144.524 641.537 149.312C633.977 153.849 628.055 160.527 623.771 169.347C619.487 177.915 617.345 187.869 617.345 199.209C617.345 210.549 619.487 220.63 623.771 229.45C628.055 238.018 633.977 244.696 641.537 249.484C649.097 254.272 657.917 256.666 667.998 256.666Z" fill="#161616"/>
<path d="M803.472 299.381V99.4156H855.258L857.148 163.677L848.076 150.446C851.1 140.114 856.014 130.79 862.819 122.474C869.623 113.906 877.561 107.228 886.633 102.44C895.957 97.6516 905.659 95.2576 915.739 95.2576C920.023 95.2576 924.181 95.6356 928.214 96.3916C932.246 97.1476 935.648 98.0296 938.42 99.0376L924.056 158.007C921.031 156.495 917.377 155.235 913.093 154.227C908.809 152.967 904.399 152.337 899.863 152.337C893.815 152.337 888.145 153.471 882.853 155.739C877.813 157.755 873.403 160.779 869.623 164.811C865.843 168.591 862.818 173.127 860.55 178.419C858.534 183.711 857.526 189.507 857.526 195.807V299.381H803.472Z" fill="#161616"/>
<path d="M1048.05 303.161C1026.38 303.161 1007.47 298.751 991.347 289.931C975.218 281.111 962.618 269.014 953.546 253.642C944.474 238.27 939.938 220.63 939.938 200.721C939.938 185.349 942.458 171.237 947.498 158.385C952.538 145.532 959.594 134.444 968.666 125.12C977.738 115.544 988.448 108.236 1000.8 103.196C1013.4 97.9036 1027.01 95.2576 1041.62 95.2576C1055.23 95.2576 1067.83 97.7776 1079.42 102.818C1091.01 107.606 1100.97 114.536 1109.28 123.608C1117.85 132.428 1124.4 142.886 1128.94 154.983C1133.48 167.079 1135.49 180.309 1134.99 194.673L1134.61 211.305H973.958L965.264 178.419H1090.38L1084.34 185.223V176.907C1083.83 170.103 1081.56 163.929 1077.53 158.385C1073.75 152.841 1068.84 148.556 1062.79 145.532C1056.74 142.508 1049.94 140.996 1042.38 140.996C1031.29 140.996 1021.84 143.138 1014.03 147.422C1006.47 151.706 1000.67 158.007 996.639 166.323C992.607 174.639 990.59 184.719 990.59 196.563C990.59 208.659 993.111 219.118 998.151 227.938C1003.44 236.758 1010.75 243.688 1020.07 248.728C1029.65 253.516 1040.87 255.91 1053.72 255.91C1062.54 255.91 1070.6 254.524 1077.91 251.752C1085.22 248.98 1093.03 244.192 1101.35 237.388L1127.05 273.299C1119.74 279.851 1111.68 285.395 1102.86 289.931C1094.04 294.215 1084.97 297.491 1075.64 299.759C1066.32 302.027 1057.12 303.161 1048.05 303.161Z" fill="#161616"/>
<path d="M1234.38 303.161C1215.73 303.161 1199.1 300.137 1184.48 294.089C1170.12 287.789 1158.53 279.221 1149.71 268.384L1182.97 239.656C1190.78 247.972 1199.48 254.02 1209.05 257.8C1218.63 261.328 1228.21 263.092 1237.78 263.092C1241.56 263.092 1244.97 262.714 1247.99 261.958C1251.27 260.95 1254.04 259.69 1256.31 258.178C1258.57 256.414 1260.21 254.398 1261.22 252.13C1262.48 249.61 1263.11 246.964 1263.11 244.192C1263.11 238.648 1260.84 234.238 1256.31 230.962C1253.79 229.702 1249.88 228.19 1244.59 226.426C1239.29 224.41 1232.49 222.268 1224.17 220C1211.32 216.724 1200.36 212.944 1191.29 208.659C1182.47 204.123 1175.41 199.083 1170.12 193.539C1165.58 188.247 1162.06 182.577 1159.54 176.529C1157.27 170.229 1156.13 163.299 1156.13 155.739C1156.13 146.666 1158.15 138.476 1162.18 131.168C1166.21 123.608 1171.76 117.182 1178.81 111.89C1186.12 106.598 1194.44 102.566 1203.76 99.7937C1213.09 96.7696 1222.91 95.2576 1233.25 95.2576C1243.58 95.2576 1253.66 96.5176 1263.49 99.0376C1273.32 101.558 1282.39 105.212 1290.7 110C1299.27 114.536 1306.71 119.954 1313.01 126.254L1284.28 158.007C1279.74 153.723 1274.58 149.816 1268.78 146.288C1263.24 142.76 1257.44 139.988 1251.39 137.972C1245.34 135.956 1239.92 134.948 1235.14 134.948C1230.85 134.948 1226.95 135.326 1223.42 136.082C1220.14 136.838 1217.37 137.972 1215.1 139.484C1212.83 140.996 1211.07 143.012 1209.81 145.532C1208.8 147.8 1208.3 150.32 1208.3 153.093C1208.3 155.865 1208.93 158.511 1210.19 161.031C1211.7 163.551 1213.72 165.693 1216.24 167.457C1219.01 168.969 1223.04 170.733 1228.33 172.749C1233.88 174.765 1241.31 177.033 1250.64 179.553C1262.73 182.829 1272.94 186.483 1281.25 190.515C1289.82 194.547 1296.63 199.209 1301.67 204.501C1305.95 209.037 1309.1 214.204 1311.12 220C1313.13 225.796 1314.14 232.222 1314.14 239.278C1314.14 251.626 1310.61 262.714 1303.56 272.542C1296.75 282.119 1287.3 289.679 1275.21 295.223C1263.11 300.515 1249.5 303.161 1234.38 303.161Z" fill="#161616"/>
<path d="M1364.13 299.381V48.7628H1417.8V299.381H1364.13ZM1326.7 147.422V99.4156H1458.63V147.422H1326.7Z" fill="#161616"/>
<path d="M1490.59 299.381V99.4156H1544.27V299.381H1490.59ZM1517.05 58.213C1506.72 58.213 1498.65 55.6929 1492.86 50.6528C1487.06 45.6127 1484.16 38.4306 1484.16 29.1065C1484.16 20.5384 1487.06 13.6082 1492.86 8.31614C1498.91 2.77205 1506.97 0 1517.05 0C1527.38 0 1535.45 2.64605 1541.24 7.93814C1547.04 12.9782 1549.94 20.0343 1549.94 29.1065C1549.94 37.9266 1546.91 44.9828 1540.86 50.2748C1535.07 55.5669 1527.13 58.213 1517.05 58.213Z" fill="#161616"/>
<path d="M1645.07 239.278L1629.19 195.051L1723.69 99.4156H1794.38L1645.07 239.278ZM1594.04 299.381V19.6563H1647.71V299.381H1594.04ZM1729.36 299.381L1657.54 209.037L1695.34 178.797L1794 299.381H1729.36Z" fill="#161616"/>
<path d="M1882.44 303.161C1865.81 303.161 1850.81 298.625 1837.46 289.553C1824.1 280.481 1813.52 268.132 1805.7 252.508C1797.89 236.884 1793.99 218.992 1793.99 198.831C1793.99 178.671 1797.89 160.905 1805.7 145.532C1813.77 129.908 1824.61 117.686 1838.21 108.866C1851.82 99.7936 1867.32 95.2576 1884.71 95.2576C1894.54 95.2576 1903.48 96.7696 1911.55 99.7937C1919.86 102.566 1927.04 106.472 1933.09 111.512C1939.39 116.552 1944.68 122.348 1948.97 128.9C1953.25 135.452 1956.28 142.508 1958.04 150.068L1946.7 148.178V99.4156H2000V299.381H1945.94V251.374L1958.04 250.24C1956.03 257.296 1952.75 263.974 1948.21 270.274C1943.68 276.575 1938.01 282.245 1931.2 287.285C1924.65 292.073 1917.22 295.979 1908.9 299.003C1900.58 301.775 1891.76 303.161 1882.44 303.161ZM1897.18 256.666C1907.26 256.666 1916.08 254.272 1923.64 249.484C1931.2 244.696 1937 238.018 1941.03 229.45C1945.31 220.63 1947.46 210.423 1947.46 198.831C1947.46 187.491 1945.31 177.537 1941.03 168.969C1937 160.401 1931.2 153.723 1923.64 148.934C1916.08 143.894 1907.26 141.374 1897.18 141.374C1887.35 141.374 1878.66 143.894 1871.1 148.934C1863.79 153.723 1858 160.401 1853.71 168.969C1849.43 177.537 1847.29 187.491 1847.29 198.831C1847.29 210.423 1849.43 220.63 1853.71 229.45C1858 238.018 1863.79 244.696 1871.1 249.484C1878.66 254.272 1887.35 256.666 1897.18 256.666Z" fill="#161616"/>
</svg>
