<svg width="2000" height="1290" viewBox="0 0 2000 1290" fill="none" xmlns="http://www.w3.org/2000/svg">
<path d="M812.092 770.263C806.412 769.191 802.207 768.715 798.444 767.618C789.416 765.001 780.469 762.239 771.698 759.287C748.084 751.353 724.814 742.972 700.942 735.374C669.408 725.353 643.95 709.752 618.456 694.603C599.319 683.237 583.917 668.878 567.825 655.331C547.139 637.907 531.755 618.09 520.096 597.132C512.148 582.836 505.459 567.857 502.078 552.658C497.419 531.726 495.34 510.343 494.284 489.045C493.732 477.947 496.493 466.451 500.074 455.403C505.436 438.804 514.375 422.571 518.934 405.922C524.565 385.382 540.483 367.972 554.818 350.074C567.666 334.037 581.274 318.172 596.309 302.99C610.264 288.893 625.459 275.175 642.014 262.387C664.743 244.83 687.905 227.305 713.366 211.628C747.101 190.869 782.704 171.451 818.507 152.358C843.121 139.229 869.005 127.108 895.15 115.457C915.864 106.219 937.676 98.0816 959.372 89.9835C985.543 80.2083 1011.49 69.9393 1038.66 61.7844C1071.58 51.8948 1105.44 43.4998 1139.29 35.3471C1164.88 29.1798 1190.79 22.8369 1217.15 19.3377C1267.13 12.7022 1317.47 7.5244 1367.78 2.80225C1391.94 0.541438 1416.48 -0.203613 1440.71 0.0459986C1471.59 0.356069 1502.34 2.13026 1533.09 3.69124C1553 4.70154 1572.85 6.10947 1592.54 7.97352C1612.71 9.87962 1633.17 11.4891 1652.61 15.0843C1695.45 22.9887 1737.77 32.0049 1780.23 40.6618C1790.55 42.7652 1801.03 44.7274 1810.79 47.6566C1840.22 56.5117 1869.45 65.6679 1898.54 75.0039C1913.7 79.8783 1928.73 85.0488 1943.2 90.7349C1962.43 98.2665 1981.09 106.425 2000 114.312C1999.6 115.025 1999.21 115.725 1998.82 116.438C1995.96 116.152 1993.1 115.9 1990.25 115.551C1956.44 111.426 1922.91 106.006 1888.72 103.487C1846.31 100.37 1803.43 98.5586 1760.57 98.2444C1725.91 97.9954 1690.97 100.491 1656.17 102.36C1633.7 103.573 1611.01 104.705 1588.91 107.923C1543.18 114.603 1497.57 122.063 1452.29 130.369C1423.54 135.641 1394.91 141.973 1367.21 149.664C1333.4 159.038 1300.39 169.956 1267.48 180.897C1243.18 188.98 1219.02 197.44 1195.88 207.03C1168.59 218.341 1141.75 230.343 1116.03 243.287C1080.16 261.334 1045.04 280.105 1010.56 299.384C989.61 311.095 969.508 323.72 950.8 337.086C927.743 353.569 905.909 370.886 884.771 388.492C868.252 402.239 852.735 416.622 838.335 431.39C827.912 442.087 819.069 453.618 811.234 465.262C798.603 484.071 785.809 502.957 776.079 522.406C768.237 538.034 763.379 554.452 759.833 570.691C755.807 589.118 753.244 607.777 752.814 626.279C752.462 641.092 755.223 655.953 758.516 670.541C761.551 684.054 765.488 697.656 772.022 710.435C779.799 725.594 790.666 739.944 800.399 754.578C803.635 759.444 807.434 764.108 812.068 770.307L812.092 770.263Z" fill="#161616"/>
<path d="M1187.91 518.888C1193.59 519.96 1197.79 520.435 1201.56 521.533C1210.58 524.149 1219.53 526.912 1228.3 529.864C1251.92 537.798 1275.19 546.179 1299.06 553.777C1330.59 563.798 1356.05 579.399 1381.54 594.548C1400.68 605.914 1416.08 620.273 1432.17 633.82C1452.86 651.245 1468.25 671.061 1479.9 692.019C1487.85 706.316 1494.54 721.295 1497.92 736.493C1502.58 757.426 1504.66 778.808 1505.72 800.107C1506.27 811.204 1503.51 822.7 1499.93 833.748C1494.56 850.347 1485.62 866.58 1481.07 883.229C1475.44 903.77 1459.52 921.178 1445.18 939.077C1432.33 955.114 1418.73 970.979 1403.69 986.16C1389.74 1000.26 1374.54 1013.98 1357.99 1026.76C1335.26 1044.32 1312.09 1061.85 1286.63 1077.52C1252.9 1098.28 1217.3 1117.7 1181.49 1136.79C1156.88 1149.92 1130.99 1162.04 1104.85 1173.69C1084.14 1182.93 1062.32 1191.07 1040.63 1199.17C1014.46 1208.94 988.51 1219.21 961.338 1227.37C928.423 1237.26 894.556 1245.65 860.705 1253.8C835.115 1259.97 809.214 1266.31 782.85 1269.81C732.869 1276.45 682.535 1281.63 632.216 1286.35C608.063 1288.61 583.518 1289.35 559.288 1289.1C528.412 1288.79 497.661 1287.02 466.91 1285.46C447.003 1284.45 427.15 1283.04 407.457 1281.18C387.287 1279.27 366.834 1277.66 347.391 1274.07C304.551 1266.16 262.234 1257.15 219.766 1248.49C209.453 1246.39 198.967 1244.42 189.21 1241.49C159.784 1232.64 130.55 1223.48 101.464 1214.15C86.2985 1209.27 71.2742 1204.1 56.7983 1198.42C37.5725 1190.88 18.9095 1182.73 0 1174.84C0.397258 1174.13 0.786409 1173.43 1.18367 1172.71C4.04369 1173 6.89875 1173.25 9.74745 1173.6C43.5649 1177.72 77.0895 1183.14 111.277 1185.66C153.691 1188.78 196.57 1190.59 239.426 1190.91C274.093 1191.16 309.027 1188.66 343.826 1186.79C366.302 1185.58 388.994 1184.45 411.089 1181.23C456.815 1174.55 502.429 1167.09 547.706 1158.78C576.458 1153.51 605.088 1147.18 632.786 1139.49C666.603 1130.11 699.615 1119.2 732.521 1108.25C756.823 1100.17 780.979 1091.71 804.123 1082.12C831.411 1070.81 858.251 1058.81 883.974 1045.86C919.837 1027.82 954.962 1009.05 989.441 989.768C1010.39 978.056 1030.49 965.432 1049.2 952.065C1072.26 935.583 1094.09 918.265 1115.23 900.66C1131.75 886.913 1147.27 872.529 1161.67 857.762C1172.09 847.064 1180.93 835.533 1188.77 823.889C1201.4 805.081 1214.19 786.194 1223.92 766.745C1231.76 751.117 1236.62 734.699 1240.17 718.46C1244.19 700.033 1246.76 681.374 1247.19 662.872C1247.54 648.059 1244.78 633.198 1241.48 618.61C1238.45 605.097 1234.51 591.495 1227.98 578.716C1220.2 563.557 1209.33 549.207 1199.6 534.572C1196.36 529.707 1192.57 525.042 1187.93 518.844L1187.91 518.888Z" fill="#161616"/>
</svg>
